<svg width="46" height="46" viewBox="0 0 46 46" fill="none" xmlns="http://www.w3.org/2000/svg">
<path d="M38.5893 20.6232C38.0833 21.0028 36.818 21.7619 36.0589 22.268C34.0345 23.6597 26.6962 25.9371 24.2923 27.3289C23.4066 27.835 23.4066 27.835 23.7862 27.4554C24.9249 26.1902 26.8228 23.2802 27.7084 21.5089C29.2267 19.358 30.2389 18.0928 31.8837 15.0562C33.4019 12.1462 34.0345 10.7544 34.2876 8.98313C34.5406 7.46486 33.5284 3.79571 33.2754 2.91005C33.1489 2.78353 33.1489 2.91005 32.8958 3.66919C32.7693 4.04876 32.5163 4.68137 32.2632 5.18746C30.7449 8.47704 30.8715 9.10966 29.7328 12.3992C28.9736 14.8032 28.7206 15.8153 28.4675 17.9662C28.341 18.7254 28.341 18.8519 28.088 19.611C27.3288 21.2558 25.5575 24.1658 24.4188 25.4311C25.431 23.5332 25.5575 20.6232 25.684 18.5988C25.684 16.3214 25.3045 14.2971 24.6719 12.1462C24.5453 11.6401 24.5453 11.134 24.4188 11.3871C24.4188 11.6401 24.1658 13.9175 24.1658 14.1706C23.6597 17.8397 21.0027 22.6476 21.0027 26.3167C20.8762 28.2145 20.7497 28.7206 20.3701 29.7328C17.8397 31.8837 13.1583 35.1733 11.5135 37.7037C9.6157 40.3607 8.60352 42.132 9.23613 43.3972C9.23613 43.5238 9.36265 43.3972 9.36265 43.1442C10.1218 38.5894 16.701 33.2754 21.1292 31.7572C22.0149 31.5041 22.2679 31.3776 23.5332 31.1246C29.1002 30.1124 31.1245 29.2267 34.9202 26.3167C36.0589 25.5576 38.4628 21.6354 39.0954 21.0028C39.6015 20.3702 39.728 19.8641 38.5893 20.6232ZM32.3897 7.21182C32.2632 7.71791 32.1367 9.23618 31.8837 9.99531C31.6306 11.2605 29.8593 14.6766 29.3532 16.0684C29.2267 16.448 29.1002 16.701 29.1002 16.701C29.1002 14.9297 30.745 10.5014 31.251 8.73009C31.6306 7.46486 33.0224 4.68137 33.1489 3.79571C33.4019 5.4405 34.0345 7.33834 33.7815 8.98313C33.4019 11.8931 30.998 15.9419 29.3532 18.4723C29.1002 18.8519 28.9736 19.1049 28.8471 19.1049C28.8471 19.1049 28.8471 19.1049 29.2267 17.8397C29.8593 15.3093 32.3897 11.2605 32.3897 8.47704C32.5163 7.46486 32.5163 7.21182 32.3897 7.21182ZM25.3045 27.4554C28.341 26.0637 34.1611 24.1658 36.565 22.521C33.655 24.7984 30.6184 26.4432 26.9493 27.7085C25.3045 28.3411 23.2801 29.1002 21.7619 29.7328C21.6353 29.7328 21.6353 29.7328 21.7619 29.7328C22.6475 29.1002 24.4188 27.9615 25.3045 27.4554ZM21.7619 24.5454C21.8884 23.5332 22.2679 22.268 22.774 21.0028C24.1658 17.0806 24.5453 15.3093 24.4188 12.6523C25.3045 16.1949 25.178 20.6232 24.1658 24.1658C23.9127 25.0515 23.1536 26.5698 22.521 27.3289C22.1414 27.9615 21.5088 28.7206 21.7619 28.2145C23.1536 25.9371 24.4188 19.8641 24.2923 18.0928C24.2923 17.5867 24.1658 17.8397 24.0393 18.9784C23.9127 19.9906 23.1536 22.521 22.9006 23.4067C22.521 25.0515 21.3823 28.2145 21.3823 28.2145C21.3823 28.088 21.6353 25.178 21.7619 24.5454ZM36.9446 22.7741C33.4019 27.4554 29.8593 29.3533 23.9127 30.492C22.521 30.745 22.1414 30.8715 21.0027 31.1246C20.1171 31.3776 20.1171 31.3776 20.8762 30.998C22.774 29.8593 29.9858 27.4554 32.0102 26.1902C34.2876 24.925 36.1854 23.5332 37.3241 22.3945C37.7037 21.7619 37.7037 21.8884 36.9446 22.7741Z" fill="#081219"/>
</svg>
