<svg width="46" height="46" viewBox="0 0 46 46" fill="none" xmlns="http://www.w3.org/2000/svg">
<g clip-path="url(#clip0_3_2478)">
<path d="M32.5163 22.774C37.5772 22.774 38.8424 16.0684 35.9324 14.4236C34.0345 13.4114 29.6063 15.1827 26.6962 16.701C26.6962 16.5744 26.6962 16.5744 26.6962 16.5744C26.6962 16.5744 31.251 12.3992 33.4019 7.71787C35.5528 3.03654 32.5163 -1.51827 27.8349 1.01218C23.1536 3.54263 23.2801 14.4236 23.2801 14.4236C23.2801 14.5501 23.1536 14.5501 23.1536 14.6766C22.3945 11.134 20.7497 6.32613 17.4601 5.94656C12.3992 5.56699 9.86875 11.387 13.6644 15.1827C16.3214 17.8397 19.2314 19.4845 20.6232 20.2436C19.7375 22.774 18.7253 25.6841 17.8397 28.5941C17.5866 25.178 16.701 20.6232 13.6644 19.864C8.60352 18.5988 7.3383 24.0393 9.10961 27.8349C10.8809 31.6306 15.9418 35.4263 15.9418 35.4263C14.6766 39.9811 13.7909 43.3972 13.7909 43.3972L17.2071 45.5481C17.5866 43.3972 18.7253 39.6015 20.1171 35.4263C20.1171 35.4263 26.0636 37.5772 30.6184 34.1611C35.1732 30.745 35.1732 26.5697 30.6184 26.1902C27.5819 25.9371 24.0393 28.341 21.8884 29.9858C23.0271 26.8228 24.1658 23.6597 25.0514 21.2558C26.3167 21.8884 29.1002 22.774 32.5163 22.774Z" fill="#081219"/>
</g>
<defs>
<clipPath id="clip0_3_2478">
<rect width="45.6746" height="45.6746" fill="white"/>
</clipPath>
</defs>
</svg>
