<svg width="46" height="46" viewBox="0 0 46 46" fill="none" xmlns="http://www.w3.org/2000/svg">
<g clip-path="url(#clip0_3_2511)">
<path d="M26.0636 29.9858C27.4554 29.3532 31.251 23.5332 29.3532 23.2801C28.4676 26.1901 25.431 27.5819 23.7862 29.9858C23.7862 29.2267 23.7862 28.4675 23.7862 27.7084C26.3167 25.684 29.3532 23.6597 29.2267 19.9905C29.2267 19.611 28.7206 19.4844 28.5941 19.864C27.9615 22.521 25.3045 23.7862 23.7862 25.8106C23.6597 22.1414 30.4919 19.7375 28.8471 15.3092C27.7084 17.7131 25.178 19.3579 23.7862 21.7618C23.7862 21.3823 23.7862 21.0027 23.7862 20.4966C26.9493 17.9662 29.7328 13.0318 28.2145 10.3748C27.3289 13.2848 25.3045 15.6888 23.7862 18.3457V16.954C27.7084 13.7909 27.9615 8.35046 26.3167 4.55479C25.5575 7.71785 25.5575 12.5257 23.6597 15.3092C24.6719 11.0074 26.3167 6.3261 24.1658 1.64477C22.774 -2.78351 23.0271 4.17522 22.6475 5.56697C21.7619 4.68131 21.3823 6.95871 21.0027 7.59133C19.1049 11.387 18.2192 14.297 22.9006 17.5866C22.9006 17.8396 22.9006 18.0927 22.9006 18.3457C21.1293 16.4479 17.9662 15.3092 18.4723 12.2727C18.4723 12.0196 18.2192 12.0196 18.0927 12.0196C16.8275 13.9175 18.3458 17.3336 19.611 18.3457C20.8762 19.4844 23.4067 19.7375 23.0271 21.8884C21.3823 19.3579 18.2192 18.8518 17.0805 15.8153C14.5501 20.6231 23.6597 21.7618 23.0271 25.9371C21.3823 22.6475 18.5988 23.2801 16.701 20.2436C16.5744 19.9905 16.1949 20.2436 16.0684 20.3701C16.3214 26.6962 24.0393 24.9249 23.0271 30.7449C21.3823 27.3288 18.4723 26.5697 16.1949 24.1658C14.4236 28.9736 23.1536 30.1123 23.0271 34.2876C21.5088 31.3776 17.4601 31.5041 16.0684 28.5941C15.8153 28.5941 15.8153 28.8471 15.8153 29.1001C16.3214 33.0223 19.611 34.9202 23.0271 35.8058C23.0271 36.4384 23.0271 37.1976 23.0271 37.8302C22.1414 35.8058 19.9905 35.2997 18.3458 34.0345C18.0927 33.7815 17.5866 32.8958 17.3336 33.5284C17.4601 36.6915 21.0027 37.8302 23.0271 39.6015C23.0271 39.8546 23.0271 40.1076 23.0271 40.2341C16.4479 33.908 17.5866 39.2219 22.774 41.6259C22.9006 41.6259 22.9006 41.6259 23.0271 41.7524C22.521 46.1807 23.7862 46.1807 23.6597 41.7524C25.6841 40.8667 27.5819 38.4628 26.9493 36.3119L26.8228 36.6915C25.8106 37.4506 24.6719 38.9689 23.6597 40.1076C24.0393 37.3241 28.4676 36.1854 28.341 33.0223V32.8958C26.6962 33.0223 24.6719 35.2997 23.7862 36.6915C23.7862 36.4384 23.7862 36.0589 23.7862 35.8058C25.3045 34.6671 30.3654 30.8715 28.7206 28.5941C27.5819 30.7449 25.178 31.6306 23.7862 33.655C23.4067 32.0102 24.9249 30.998 26.0636 29.9858ZM22.6475 5.94654C21.7619 9.36264 22.9006 12.6522 23.0271 16.1949C20.8762 13.1583 21.6353 9.36264 22.6475 5.94654Z" fill="#081219"/>
</g>
<defs>
<clipPath id="clip0_3_2511">
<rect width="45.6746" height="45.6746" fill="white"/>
</clipPath>
</defs>
</svg>
