<svg width="46" height="46" viewBox="0 0 46 46" fill="none" xmlns="http://www.w3.org/2000/svg">
<g clip-path="url(#clip0_3_2312)">
<path opacity="0.98" d="M36.1854 30.998C35.9324 30.4919 35.6793 29.7328 35.1733 29.1002C34.6672 28.341 34.1611 27.7084 33.5285 26.9493C33.4019 26.8228 33.2754 26.5697 33.1489 26.4432C33.0224 26.3167 33.0224 26.1901 32.8958 26.1901V26.0636V25.9371C32.7693 25.5575 32.5163 25.0514 32.3898 24.6719C32.1367 23.7862 31.8837 22.9006 31.5041 22.2679C31.1245 21.5088 30.745 21.0027 30.4919 20.6232C30.1124 20.2436 29.8593 20.1171 29.8593 20.1171C29.8593 20.1171 29.8593 20.1171 29.8593 20.2436C29.8593 20.3701 29.9858 20.4966 30.1124 20.7497C30.8715 21.6353 31.2511 22.6475 31.6306 23.6597C31.7571 24.1658 32.0102 24.6719 32.1367 25.3045C32.2632 25.5575 32.2632 25.8106 32.3898 26.0636L32.5163 26.3167V26.4432V26.5697C32.6428 26.6962 32.6428 26.8228 32.7693 26.9493C33.4019 27.8349 34.1611 28.7206 34.7937 29.6063C35.4263 30.4919 35.9324 31.5041 36.0589 32.5163C36.0589 32.8958 36.0589 33.1489 36.0589 33.5284C36.0589 33.908 35.9324 34.1611 35.8059 34.4141V34.5406H35.6793C35.6793 34.5406 35.6793 34.5406 35.5528 34.6672C35.4263 34.7937 35.2998 34.7937 35.1733 34.9202C34.9202 35.0467 34.6672 35.0467 34.4141 35.0467C34.1611 35.0467 33.908 34.7937 33.655 34.6672C33.5285 34.5406 33.2754 34.2876 33.1489 34.0345C33.5285 34.1611 34.0345 34.0345 34.6672 33.5284C36.0589 30.745 33.1489 28.2145 31.7571 26.0636C30.998 24.1658 30.6184 21.8884 29.1002 20.4966C28.2145 19.611 27.5819 18.0927 26.0636 18.2192C25.5575 18.2192 25.0515 18.3458 24.5454 18.4723H24.6719C21.7619 19.3579 20.4966 22.521 19.1049 24.9249C17.8397 27.3288 16.5744 29.8593 15.4357 32.2632C15.4357 32.2632 15.3092 32.3897 15.3092 32.5163C14.044 35.0467 12.3992 37.7037 13.1583 40.6137C13.4114 41.3728 14.5501 42.8911 15.5623 42.385C16.3214 42.0055 16.4479 40.8668 16.954 40.2341C16.954 40.2341 16.954 40.1076 17.0805 40.1076V40.2341C16.954 40.7402 16.701 41.2463 16.4479 41.7524L16.1949 42.132C16.0684 42.2585 16.0684 42.385 15.9418 42.5115C15.8153 42.7646 15.6888 43.0176 15.5623 43.2707C15.4357 43.5237 15.3092 43.7768 15.1827 44.0298C15.0562 44.1563 15.0562 44.2829 14.9297 44.2829L14.8031 44.4094H14.6766C14.4236 44.5359 14.1705 44.5359 14.044 44.4094C13.791 44.2829 13.5379 44.1563 13.4114 44.0298C13.0318 43.6502 12.6523 43.2707 12.5257 42.7646C12.3992 42.5115 12.3992 42.2585 12.2727 42.0055C12.2727 41.8789 12.2727 41.7524 12.2727 41.6259C12.2727 41.4994 12.2727 41.3728 12.2727 41.2463V40.8668V40.4872C12.2727 40.3607 12.2727 40.2341 12.2727 40.1076C12.2727 39.9811 12.2727 39.8546 12.2727 39.7281C12.3992 39.222 12.5257 38.7159 12.6523 38.0833C13.1583 36.565 13.9175 35.1732 14.6766 33.7815C15.5623 32.0102 16.4479 30.3654 17.3336 28.4676C17.7132 27.7084 18.2192 26.6962 18.8519 25.3045L18.9784 25.178C19.864 23.6597 20.6232 21.8884 21.7619 20.4966C22.268 19.864 22.9006 19.2314 23.5332 18.8518C23.6597 18.7253 23.7862 18.7253 23.9128 18.5988C24.0393 18.4723 24.1658 18.4723 24.2923 18.4723C24.5454 18.3458 24.7984 18.3458 24.9249 18.2192C25.3045 18.0927 25.6841 17.9662 26.1902 17.9662C26.3167 17.9662 26.4432 17.9662 26.5697 17.9662C26.6962 17.9662 26.8228 17.9662 26.8228 17.9662H26.9493H27.0758C27.2023 17.9662 27.3289 18.0927 27.3289 18.0927C27.7084 18.2192 28.088 18.5988 28.341 18.8518C28.5941 19.2314 28.8471 19.4845 29.2267 19.864C29.6063 20.1171 29.7328 20.2436 29.7328 20.1171C29.7328 19.9905 29.6063 19.7375 29.2267 19.2314C28.9736 18.8518 28.7206 18.5988 28.341 18.2192C28.088 17.9662 27.7084 17.5866 27.2023 17.4601C26.9493 17.4601 26.6962 17.3336 26.5697 17.3336C26.4432 17.3336 26.3167 17.3336 26.1902 17.3336C26.0636 17.3336 25.9371 17.3336 25.8106 17.3336C25.431 17.3336 25.0515 17.4601 24.6719 17.5866H24.5454C23.7862 17.8397 23.0271 18.2192 22.3945 18.8518C21.3823 19.7375 20.7497 20.7497 20.1171 21.7619C19.4845 22.774 18.9784 23.7862 18.4723 24.6719L18.3458 24.9249L18.5988 25.178L18.3458 25.0514C17.8397 26.0636 17.3336 27.0758 16.8275 28.088C15.9418 29.8593 15.0562 31.6306 14.1705 33.4019C13.6644 34.5406 13.0318 35.5528 12.5257 36.818C12.2727 37.4506 12.0196 37.9567 11.8931 38.5893C11.7666 39.222 11.5135 39.8546 11.5135 40.4872C11.5135 40.6137 11.5135 40.7402 11.5135 40.9933C11.5135 41.1198 11.5135 41.3728 11.5135 41.6259C11.5135 41.8789 11.5135 42.132 11.6401 42.385C11.6401 42.5115 11.6401 42.6381 11.7666 42.7646C11.7666 42.8911 11.7666 42.8911 11.8931 43.0176C11.8931 43.1442 11.8931 43.1442 12.0196 43.2707C12.1462 43.5237 12.3992 43.7768 12.5257 44.0298C12.7788 44.2829 13.0318 44.5359 13.2849 44.6624C13.5379 44.7889 13.9175 45.042 14.297 44.9155H14.4236H14.5501H14.6766L14.8031 44.7889C14.9297 44.6624 15.0562 44.5359 15.1827 44.4094C15.6888 43.7768 15.8153 43.1442 16.1949 42.5115C16.5744 42.0055 16.954 41.3728 17.0805 40.7402C17.4601 39.6015 17.7132 38.4628 17.8397 37.8302C17.8397 37.4506 17.9662 37.1976 17.9662 36.818C17.9662 36.565 18.0927 36.3119 18.0927 36.0589C18.0927 35.9324 18.0927 35.8059 18.2192 35.6793C18.2192 35.5528 18.3458 35.4263 18.3458 35.2998C18.4723 35.0467 18.4723 34.7937 18.5988 34.5406C18.9784 33.5284 19.2314 32.3897 19.7375 31.3776C20.1171 30.3654 20.6232 29.3532 21.1293 28.341C21.2558 28.088 21.3823 27.8349 21.5088 27.5819C21.6353 27.3288 21.7619 27.0758 22.0149 26.9493C22.1414 26.6962 22.3945 26.5697 22.521 26.3167L22.774 25.9371C22.9006 25.8106 22.9006 25.6841 23.0271 25.6841C23.4067 25.3045 23.7862 25.178 24.1658 24.9249C24.5454 24.7984 24.9249 24.6719 25.3045 24.6719C25.6841 24.6719 26.0636 24.6719 26.5697 24.6719C26.9493 24.7984 27.4554 24.9249 27.8349 25.178C27.9615 25.3045 27.9615 25.3045 28.088 25.431C29.3532 27.0758 29.8593 29.2267 30.745 31.1245C30.998 31.8837 31.3776 32.8958 32.0102 33.5284C32.1367 33.908 32.3898 34.1611 32.6428 34.5406C32.8958 34.9202 33.1489 35.1732 33.655 35.4263C33.908 35.5528 34.0345 35.5528 34.2876 35.5528C34.5406 35.5528 34.6672 35.5528 34.9202 35.4263C35.1733 35.4263 35.2998 35.2998 35.4263 35.1732C35.5528 35.1732 35.5528 35.0467 35.6793 35.0467C35.6793 35.0467 35.8059 35.0467 35.8059 34.9202L35.9324 34.7937V34.6672V34.5406C35.9324 34.4141 36.0589 34.4141 36.0589 34.2876C36.0589 34.1611 36.1854 34.0345 36.1854 33.908C36.312 33.2754 36.312 32.7693 36.312 32.5163C36.4385 32.0102 36.312 31.6306 36.1854 30.998Z" fill="#081219"/>
<path opacity="0.98" d="M45.4215 23.2801C45.4215 22.521 45.295 21.8884 45.0419 21.2558C44.6624 19.9905 44.4093 19.1049 44.1563 18.3458C43.9032 17.5866 43.7767 17.2071 43.6502 17.0805C43.5237 16.954 43.5237 17.3336 43.6502 18.0927C43.9032 18.9784 44.1563 19.864 44.4093 20.7497C44.6624 21.6353 44.7889 22.521 44.9154 23.4067C44.9154 24.2923 44.7889 25.178 44.2828 25.8106C44.1563 25.9371 44.0298 26.1901 43.9032 26.3167C43.7767 26.4432 43.7767 26.4432 43.6502 26.5697L43.5237 26.6962C43.5237 26.6962 43.5237 26.8228 43.3971 26.8228C43.2706 26.9493 43.1441 27.0758 42.891 27.2023C42.7645 27.3289 42.5115 27.4554 42.385 27.3289C42.2584 27.3289 42.2584 27.3289 42.2584 27.2023C42.2584 27.2023 42.1319 27.0758 42.1319 26.9493V26.8228V26.6962L42.0054 26.5697C41.8789 26.4432 41.8789 26.4432 41.7523 26.3167C41.7523 26.3167 41.6258 26.1901 41.6258 26.0636C44.1563 23.7862 42.0054 20.2436 41.4993 17.4601C40.2341 12.5257 38.7158 10.1218 34.9201 6.70569C31.7571 3.66915 29.1001 3.28958 24.9249 3.16306C22.1414 3.28958 19.6109 4.42828 16.9539 5.31394C14.55 6.57916 12.2726 8.35048 10.2482 9.99527C7.33823 13.1583 4.80778 16.8275 3.7956 21.0027C2.6569 24.6719 1.64472 28.8471 3.28951 32.3897C3.54255 32.7693 3.7956 33.0224 4.17517 33.1489C4.17517 33.655 4.04864 33.908 3.7956 34.1611C3.54255 34.4141 3.16299 34.6672 2.78342 34.6672C2.40385 34.6672 2.02428 34.2876 1.77124 34.0345C1.64472 33.908 1.64472 33.908 1.51819 33.7815L1.39167 33.655V33.5285C1.39167 33.2754 1.39167 33.0224 1.26515 32.8958L1.0121 32.2632C0.885581 32.0102 0.885581 31.8837 0.885581 31.6306C0.759059 30.745 0.632536 29.8593 0.632536 28.9736C0.632536 28.088 0.759059 27.2023 0.885581 26.3167C1.0121 25.431 1.26515 24.5454 1.39167 23.6597C1.64472 22.774 1.89776 21.8884 2.15081 21.1292C2.40385 20.2436 2.6569 19.3579 2.90994 18.5988C3.28951 17.7131 3.54255 16.954 4.04864 16.1949C4.42821 15.4357 4.9343 14.6766 5.44039 13.9175C5.94648 13.1583 6.45257 12.3992 6.95866 11.7666C7.71779 10.8809 8.35041 9.99527 9.10954 9.10961H9.23606C9.61563 8.73005 9.9952 8.477 10.3748 8.09743C10.7543 7.71787 11.2604 7.3383 11.64 7.08525C12.5256 6.45264 13.4113 5.82003 14.4235 5.18742C14.9296 4.93437 15.4357 4.55481 15.8152 4.30176C15.9418 4.17524 16.0683 4.17524 16.1948 4.04872L16.4478 3.79567H16.5744H16.7009C16.9539 3.66915 17.207 3.66915 17.46 3.54263C18.5987 3.16306 19.6109 2.78349 20.7496 2.40392C21.2557 2.2774 22.0148 2.02436 22.774 1.89783C23.5331 1.77131 24.4188 1.51827 25.4309 1.51827C27.3288 1.64479 29.6062 1.77131 31.7571 2.40392C32.0101 2.53045 32.2632 2.65697 32.5162 2.65697C32.7692 2.78349 33.0223 2.91001 33.2753 3.03654C33.5284 3.16306 33.7814 3.28958 33.9079 3.4161C34.161 3.54263 34.2875 3.66915 34.5406 3.79567C34.7936 3.92219 34.9201 4.04872 35.1732 4.30176C35.4262 4.42828 35.5527 4.68133 35.6793 4.80785C36.0588 5.0609 36.3119 5.44046 36.6914 5.69351C37.3241 6.32612 37.9567 6.83221 38.3362 7.3383C38.5893 7.59134 38.7158 7.84439 38.9688 8.09743C39.0954 8.35048 39.3484 8.477 39.4749 8.60352C40.3606 9.74223 41.2463 10.8809 41.7523 12.2727C42.385 13.5379 42.891 14.9296 43.2706 16.3214C43.5237 16.954 43.6502 17.2071 43.6502 16.954C43.6502 16.8275 43.6502 16.1949 43.3971 15.4357C43.1441 14.4236 42.7645 13.5379 42.385 12.5257C42.0054 11.6401 41.4993 10.6279 40.8667 9.86875C39.728 8.22396 38.3362 6.70569 36.6914 5.31394C36.4384 5.0609 36.1854 4.80785 35.9323 4.55481C35.8058 4.42828 35.6793 4.30176 35.5527 4.17524C35.4262 4.04872 35.2997 3.92219 35.1732 3.79567C34.5406 3.28958 34.0345 2.91001 33.4019 2.65697C32.7692 2.2774 32.1366 2.02436 31.3775 1.77131C30.7449 1.51827 29.9858 1.39174 29.2266 1.26522C28.4675 1.1387 27.8349 1.1387 27.0757 1.01218C26.6962 1.01218 26.3166 1.01218 26.0636 1.01218C25.684 1.01218 25.3044 1.01218 24.9249 1.01218C23.4066 1.1387 22.0148 1.51827 20.6231 1.89783C19.4844 2.2774 18.4722 2.65697 17.3335 3.03654C17.0805 3.16306 16.8274 3.16306 16.5744 3.28958H16.4478H16.3213L16.1948 3.4161C16.0683 3.54263 15.9418 3.54263 15.8152 3.66915C15.3091 3.92219 14.8031 4.30176 14.297 4.55481C13.2848 5.18742 12.3991 5.82003 11.5135 6.57916C11.0074 6.83221 10.6278 7.21178 10.1217 7.59134C9.74216 7.97091 9.36259 8.22396 8.98302 8.60352L8.72997 8.85657C7.08518 10.7544 5.44039 12.7788 4.04864 14.9296C3.66908 15.6888 2.90994 16.954 2.27733 18.7253C2.15081 19.1049 2.02428 19.611 1.89776 20.1171C1.77124 20.6232 1.64472 21.1293 1.51819 21.6353C1.26515 22.6475 0.885581 23.6597 0.759059 24.7984C0.506014 25.9371 0.379491 26.9493 0.252969 28.088C0.126446 29.2267 0.252969 30.2389 0.379491 31.251C0.379491 31.5041 0.506014 31.7571 0.506014 32.0102C0.506014 32.1367 0.506014 32.2632 0.632536 32.3897C0.632536 32.5163 0.759059 32.6428 0.759059 32.7693C0.885581 33.0224 0.885581 33.1489 1.0121 33.4019C1.0121 33.5285 1.13863 33.655 1.13863 33.655V33.7815V33.908V34.0345C1.39167 34.4141 1.64472 34.6672 2.02428 34.9202C2.27733 35.1732 2.78342 35.2998 3.03646 35.2998C3.28951 35.2998 3.54255 35.1732 3.7956 34.9202C4.04864 34.7937 4.17517 34.5406 4.30169 34.4141C4.42821 34.1611 4.55473 34.0345 4.68126 33.7815C6.19953 34.0345 7.2117 30.3654 7.84432 28.9736C8.98302 26.9493 9.36259 24.4188 10.5013 22.3945C11.3869 20.7497 12.0196 17.4601 13.6644 16.3214C16.0683 14.4236 18.0926 12.0196 20.8761 10.6279C20.6231 10.7544 20.37 11.0075 20.117 11.134C19.7374 11.5135 19.2313 11.7666 18.8518 12.1462C18.5987 12.2727 18.4722 12.5257 18.2192 12.6522L17.9661 12.9053L17.8396 13.0318L17.7131 13.1583C15.5622 14.8031 13.7909 16.954 12.5256 19.2314C11.1339 21.5088 10.1217 23.9127 8.98302 26.4432C8.72997 26.9493 8.35041 28.088 7.97084 29.3532C7.59127 30.6184 7.2117 32.2632 7.08518 33.908C6.95866 34.7937 6.95866 35.5528 7.08518 36.4385C7.08518 37.1976 7.21171 38.0833 7.46475 38.8424C7.59127 39.222 7.7178 39.6015 7.97084 39.8546C8.09736 39.9811 8.35041 40.1076 8.47693 40.1076C8.72997 40.1076 8.8565 40.1076 9.10954 39.9811C9.36259 39.8546 9.61563 39.6015 9.74215 39.3485C9.86868 39.0954 9.9952 38.9689 10.1217 38.7159C10.2482 38.4628 10.3748 38.2098 10.3748 38.0833C10.7543 37.8302 11.1339 37.1976 11.5135 36.0589C13.0317 31.8837 14.6765 28.088 16.8274 24.1658C18.3457 22.268 20.2435 20.3701 21.5087 18.3458C22.9005 15.6888 26.5696 15.6888 28.4675 17.8397C30.6184 20.2436 31.6305 23.4067 33.1488 26.1901C33.7814 27.2023 34.5406 27.7084 35.1732 27.8349L35.2997 27.9615C35.5527 28.088 35.6793 28.341 35.9323 28.341C36.1854 28.4676 36.4384 28.5941 36.818 28.5941C37.071 28.5941 37.4506 28.5941 37.7036 28.341C37.9567 28.2145 38.2097 27.9615 38.3362 27.7084C38.7158 27.2023 38.7158 26.5697 38.5893 25.9371C38.5893 25.3045 38.3362 24.7984 38.0832 24.2923V24.1658L37.9567 23.9127C37.9567 23.7862 37.8301 23.6597 37.8301 23.5332C37.7036 23.2801 37.5771 23.0271 37.4506 22.774C37.1975 22.268 36.9445 21.8884 36.6914 21.5088C36.1854 20.7497 35.8058 20.1171 35.4262 19.611C35.1732 19.1049 34.9201 18.8518 34.7936 18.8518C34.6671 18.8518 34.7936 19.1049 34.9201 19.611C35.6793 20.7497 36.4384 21.8884 37.071 23.0271C37.1975 23.2801 37.3241 23.6597 37.4506 23.9127L37.9567 24.0393V24.1658V24.2923C38.0832 24.4188 38.0832 24.5454 38.0832 24.7984C38.3362 25.431 38.4628 26.0636 38.3362 26.6962C38.3362 26.9493 38.2097 27.3288 38.0832 27.5819C37.9567 27.8349 37.7036 27.9615 37.4506 28.088C37.1975 28.2145 36.9445 28.2145 36.5649 28.088C36.3119 27.9615 36.1854 27.9615 35.9323 27.8349C36.9445 27.5819 37.4506 26.0636 36.4384 24.1658C35.8058 22.3945 34.5406 21.0027 33.6549 19.3579C32.7692 17.5866 31.6305 15.8153 30.2388 14.4236C28.9736 12.6522 27.8349 10.5014 25.1779 10.7544C22.5209 10.6279 20.2435 12.6522 18.4722 14.297C14.4235 17.3336 12.1461 22.0149 10.2482 26.6962C9.61563 29.1002 8.8565 31.8837 8.98302 34.5406C8.98302 36.3119 9.48911 37.8302 10.1217 37.9567C9.86868 38.4628 9.61563 38.8424 9.36259 39.222C9.10954 39.475 8.8565 39.6015 8.72997 39.475C8.47693 39.3485 8.35041 39.0954 8.22388 38.8424C7.97084 38.3363 7.84432 37.5772 7.71779 36.9446C7.71779 36.565 7.71779 36.3119 7.71779 35.9324C7.71779 35.5528 7.71779 35.2998 7.71779 34.9202C7.71779 33.655 7.97084 32.2632 8.22388 30.998C8.47693 29.7328 8.8565 28.4676 9.36259 27.2023C9.86868 25.9371 10.3748 24.6719 10.8809 23.5332C11.2604 22.521 11.7665 21.6353 12.2726 20.6232C12.7787 19.7375 13.2848 18.8518 13.9174 17.9662C14.55 17.0805 15.1826 16.3214 15.8152 15.5623C16.5744 14.8031 17.3335 14.044 18.0926 13.4114L18.2192 13.2849H18.3457C18.4722 13.1583 18.4722 13.1583 18.5987 13.0318C18.8518 12.9053 18.9783 12.6522 19.2313 12.3992C19.7374 12.0196 20.2435 11.5135 20.7496 11.134C21.3822 10.7544 22.0148 10.2483 22.6474 9.99527C23.4066 9.6157 24.1657 9.48918 24.9249 9.36266C25.1779 9.36266 25.3044 9.36266 25.5575 9.36266H25.937C26.0636 9.36266 26.1901 9.36266 26.1901 9.36266C26.3166 9.36266 26.4431 9.36266 26.4431 9.36266H26.5696H26.6962C26.8227 9.36266 26.8227 9.36266 26.9492 9.36266C27.0757 9.36266 27.0757 9.36266 27.2023 9.48918C27.9614 9.74223 28.4675 10.1218 28.9736 10.6279C29.4797 11.134 29.7327 11.6401 30.1123 12.0196C30.3653 12.3992 30.6184 12.7788 30.7449 13.0318C30.8714 13.1583 30.8714 13.2849 30.9979 13.4114L31.1245 13.5379L31.251 13.6644C31.3775 13.9175 31.6305 14.044 31.7571 14.297C32.1366 14.6766 32.3897 15.0562 32.7692 15.5623C33.4019 16.4479 33.9079 17.3336 34.5406 18.2192C34.7936 18.5988 35.0467 18.7253 35.0467 18.5988C35.0467 18.4723 34.9201 18.0927 34.6671 17.4601C33.9079 16.0684 33.0223 14.9296 32.0101 13.7909C31.8836 13.6644 31.7571 13.5379 31.6305 13.4114V13.1583L31.504 13.0318C31.251 12.7788 31.1245 12.3992 30.8714 12.1462C30.4918 11.5135 29.9858 10.8809 29.3531 10.3748C28.9736 9.99527 28.4675 9.6157 27.9614 9.36266C27.4553 9.10961 26.8227 8.98309 26.3166 8.98309C26.1901 8.98309 26.0636 8.98309 25.937 8.98309H25.8105H25.5575C25.4309 8.98309 25.3044 8.98309 25.1779 8.98309H24.7983C24.2922 9.10961 23.7861 9.23614 23.2801 9.36266C23.027 9.48918 22.9005 9.48918 22.774 9.6157C28.4675 6.57916 33.6549 10.8809 36.818 16.0683C38.4628 18.9784 38.0832 24.4188 40.3606 26.5697C40.4871 27.4554 41.2463 27.0758 41.6258 26.5697C41.6258 26.6962 41.7523 26.6962 41.7523 26.8228C41.7523 26.9493 41.8789 26.9493 42.0054 27.0758V27.2023C42.0054 27.3289 42.1319 27.4554 42.1319 27.5819C42.2584 27.7084 42.385 27.8349 42.5115 27.8349C42.638 27.8349 42.638 27.8349 42.7645 27.8349C42.891 27.8349 42.891 27.8349 43.0176 27.8349C43.1441 27.8349 43.2706 27.7084 43.3971 27.7084C43.6502 27.5819 43.7767 27.4554 43.9032 27.3289C44.0298 27.2023 44.0298 27.2023 44.1563 27.0758L44.2828 26.9493L44.5358 26.6962L44.7889 26.4432C45.0419 26.1901 45.295 25.8106 45.4215 25.431C45.4215 24.7984 45.4215 24.0393 45.4215 23.2801Z" fill="#081219"/>
</g>
<defs>
<clipPath id="clip0_3_2312">
<rect width="45.6746" height="45.6746" fill="white"/>
</clipPath>
</defs>
</svg>
